<svg width="101" height="130" viewBox="0 0 101 130" fill="none" xmlns="http://www.w3.org/2000/svg">
  <path d="M0 27C0 20.3726 5.37258 15 12 15H100V115H12C5.37258 115 0 109.627 0 103V27Z" fill="#252836"/>
  <path d="M95.6916 119.322C91.8458 114.411 88 115.025 88 115.025H99.5374V129.758C99.5374 129.758 99.5374 124.233 95.6916 119.322Z" fill="#252836"/>
  <path d="M96.1723 9.82254C100.018 4.91127 99.5374 0 99.5374 0V14.7338H88C88 14.7338 92.3265 14.7338 96.1723 9.82254Z" fill="#252836"/>
  <g filter="url(#filter0_d_0_711)">
    <rect x="23" y="38" width="54" height="54" rx="8" fill="#EA7C69"/>
  </g>
  <path d="M46.9422 53.8737C48.5464 52.6628 50.7948 52.6148 52.4483 53.7297L52.6517 53.8737L60.343 59.7195C61.1894 60.3424 61.7085 61.2677 61.7969 62.2746L61.8096 62.5158V72.2476C61.8096 74.7558 59.7241 76.796 57.1106 76.928H54.5969C53.3957 76.9052 52.4243 76.0171 52.3359 74.901L52.3233 74.7318V71.3007C52.3233 70.9274 52.0315 70.6166 51.6411 70.5554L51.5275 70.5434H48.1536C47.7506 70.5554 47.4222 70.8314 47.3717 71.1915L47.359 71.3007V74.721C47.359 74.7918 47.3451 74.8758 47.3338 74.9358L47.3211 74.961L47.3073 75.0439C47.1569 76.0652 46.2727 76.844 45.1738 76.9172L45.0096 76.928H42.7485C40.1085 76.928 37.9485 74.961 37.8096 72.4876V62.5158C37.8209 61.4945 38.2896 60.5464 39.0727 59.8863L46.9422 53.8737ZM51.5527 55.1819C50.5927 54.4498 49.2285 54.415 48.218 55.0498L48.0273 55.1819L40.3473 61.0636C39.9064 61.3745 39.6411 61.8425 39.578 62.3346L39.5641 62.5266V72.2476C39.5641 73.8437 40.8778 75.1519 42.5464 75.2479H45.0096C45.2875 75.2479 45.5275 75.0691 45.5641 74.817L45.5906 74.601L45.6033 74.5398V71.3007C45.6033 70.0165 46.639 68.9724 47.9654 68.8752H51.5275C52.8778 68.8752 53.9767 69.8605 54.079 71.1207V74.7318C54.079 74.9838 54.2685 75.2011 54.5211 75.2479H56.8694C58.562 75.2479 59.9388 74.0129 60.0399 72.4396L60.0538 72.2476V62.5266C60.0399 62.0117 59.8138 61.5305 59.4222 61.1717L59.258 61.0384L51.5527 55.1819Z" fill="white"/>
  <defs>
    <filter id="filter0_d_0_711" x="-1" y="22" width="102" height="102" filterUnits="userSpaceOnUse" color-interpolation-filters="sRGB">
      <feFlood flood-opacity="0" result="BackgroundImageFix"/>
      <feColorMatrix in="SourceAlpha" type="matrix" values="0 0 0 0 0 0 0 0 0 0 0 0 0 0 0 0 0 0 127 0" result="hardAlpha"/>
      <feOffset dy="8"/>
      <feGaussianBlur stdDeviation="12"/>
      <feComposite in2="hardAlpha" operator="out"/>
      <feColorMatrix type="matrix" values="0 0 0 0 0.917647 0 0 0 0 0.486275 0 0 0 0 0.411765 0 0 0 0.32 0"/>
      <feBlend mode="normal" in2="BackgroundImageFix" result="effect1_dropShadow_0_711"/>
      <feBlend mode="normal" in="SourceGraphic" in2="effect1_dropShadow_0_711" result="shape"/>
    </filter>
  </defs>
</svg>